<?xml version="1.0" encoding="utf-8"?>
<!-- Generator: Adobe Illustrator 19.0.1, SVG Export Plug-In . SVG Version: 6.00 Build 0)  -->
<svg version="1.2" baseProfile="tiny" id="Layer_1" xmlns="http://www.w3.org/2000/svg" xmlns:xlink="http://www.w3.org/1999/xlink"
	 x="0px" y="0px" viewBox="247 -40.6 622 198.6" xml:space="preserve">
<path fill="black" d="M338.1-25.8c0-8.2,6.6-14.8,14.8-14.8c8.2,0,14.8,6.6,14.8,14.8c0,8.2-6.6,14.8-14.8,14.8
	C344.7-11.1,338.1-17.7,338.1-25.8L338.1-25.8z"/>
<polygon fill="black" points="346.5,11.7 346.5,3.2 314.8,-16.2 314.9,-0.8 "/>
<polygon fill="black" points="359.2,11.5 359.2,3.2 390.5,-16 390.5,-0.8 "/>
<polygon fill="black" points="346.3,39.6 346.3,17.8 300.3,-0.7 300.3,23.6 "/>
<polygon fill="black" points="359.3,39.5 359.3,17.7 405.2,-0.4 405.2,23.8 "/>
<polygon fill="black" points="346.4,45.5 278.1,21.6 278.1,70.2 "/>
<polygon fill="black" points="359.5,45.5 426.7,21.6 426.7,70.2 "/>
<polygon fill="black" points="340.7,54.2 364.6,54.2 364.6,118.9 340.7,118.9 "/>
<polygon fill="black" points="333,117.4 333,56.8 304.5,67.1 304.5,105.5 "/>
<polygon fill="black" points="371.3,117.4 371.3,56.8 399.8,67.1 399.8,105.5 "/>
<path fill="black" d="M436-11.7c13.4,16,21.9,39.6,21.9,64.3c0,58.9-47.3,105.4-105.3,105.4C294.7,158,247,111.3,247,52.4
	c0-24.2,7.9-45.9,22-64.1c-6.5,10.4-8.8,15.2-12.6,29.2c-2.5,9.5-3.1,19.8-3.1,29.5c1.4,22.5,8.2,37,20.2,55.1
	c17.9,23.8,45.6,39.2,78.8,39.2c55.1,0,98.4-43.3,99.2-97.5C451.6,23.5,446.5,4.7,436-11.7L436-11.7z"/>
</svg>
